<?xml version="1.0" encoding="UTF-8"?>
<svg id="Layer_2" xmlns="http://www.w3.org/2000/svg" viewBox="0 0 3.91 3.61">
  <defs>
    <style>
      .cls-1 {
        stroke: #000;
        stroke-miterlimit: 10;
        stroke-width: .2px;
      }
    </style>
  </defs>
  <g id="Layer_1-2" data-name="Layer_1">
    <g>
      <path class="cls-1" d="M3.34,3.51H.57c-.07,0-.12-.06-.12-.12v-1.52h-.23c-.05,0-.1-.04-.12-.08s0-.1.03-.14L1.85.13s.12-.04.17,0l1.76,1.57s.05.09.03.14c-.02.05-.06.08-.12.08h-.22s0,1.47,0,1.47c0,.07-.06.12-.12.12ZM.7,3.26h2.51v-1.47s.01-.07.04-.09.06-.04.09-.04h.02L1.93.39.55,1.62h.03c.07,0,.12.06.12.13v1.52Z"/>
      <rect class="cls-1" x="1.75" y="2.28" width=".34" height=".89"/>
    </g>
  </g>
</svg>