<?xml version="1.0" encoding="UTF-8"?>
<svg id="Layer_2" xmlns="http://www.w3.org/2000/svg" viewBox="0 0 3.71 3.41">
  <g id="Layer_1-2" data-name="Layer_1">
    <g>
      <path d="M3.24,3.41H.47c-.07,0-.12-.06-.12-.12v-1.52H.12c-.05,0-.1-.04-.12-.08s0-.1.03-.14L1.75.03s.12-.04.17,0l1.76,1.57s.05.09.03.14c-.02.05-.06.08-.12.08h-.22s0,1.47,0,1.47c0,.07-.06.12-.12.12ZM.6,3.16h2.51v-1.47s.01-.07.04-.09.06-.04.09-.04h.02L1.83.29.45,1.52h.03c.07,0,.12.06.12.13v1.52Z"/>
      <rect x="1.65" y="2.07" width=".41" height="1.1"/>
    </g>
  </g>
</svg>